STARTFONT 2.1
FONT -FontForge-Satisfy-Book-R-Normal--28-280-72-72-P-121-ISO10646-1
SIZE 28 72 72
FONTBOUNDINGBOX 32 40 -6 -14
COMMENT "Generated by fontforge, http://fontforge.sourceforge.net"
COMMENT "Copyright (c) 2011 by Font Diner, Inc. All rights reserved."
STARTPROPERTIES 39
FOUNDRY "FontForge"
FAMILY_NAME "Satisfy"
WEIGHT_NAME "Book"
SLANT "R"
SETWIDTH_NAME "Normal"
ADD_STYLE_NAME ""
PIXEL_SIZE 28
POINT_SIZE 280
RESOLUTION_X 72
RESOLUTION_Y 72
SPACING "P"
AVERAGE_WIDTH 121
CHARSET_REGISTRY "ISO10646"
CHARSET_ENCODING "1"
FONTNAME_REGISTRY ""
CHARSET_COLLECTIONS "ISO10646-1"
FONT_NAME "Satisfy-Regular"
FACE_NAME "Satisfy Regular"
COPYRIGHT "Copyright (c) 2011 by Font Diner, Inc. All rights reserved."
FONT_VERSION "1.001"
FONT_ASCENT 22
FONT_DESCENT 6
UNDERLINE_POSITION -3
UNDERLINE_THICKNESS 2
X_HEIGHT 10
CAP_HEIGHT 20
RAW_ASCENT 799
RAW_DESCENT 200
NORM_SPACE 8
RELATIVE_WEIGHT 40
RELATIVE_SETWIDTH 50
SUPERSCRIPT_X 0
SUPERSCRIPT_Y 13
SUPERSCRIPT_SIZE 18
SUBSCRIPT_X 0
SUBSCRIPT_Y 3
SUBSCRIPT_SIZE 18
AVG_LOWERCASE_WIDTH 114
AVG_UPPERCASE_WIDTH 158
ENDPROPERTIES
CHARS 227
STARTCHAR space
ENCODING 32
SWIDTH 280 0
DWIDTH 8 0
BBX 1 1 0 0
BITMAP
00
ENDCHAR
STARTCHAR exclam
ENCODING 33
SWIDTH 249 0
DWIDTH 7 0
BBX 9 22 -1 -1
BITMAP
0180
0700
0700
0700
0700
0600
0E00
0E00
0C00
0C00
1C00
1C00
1800
1800
1800
3800
3000
0000
0000
7000
F000
6000
ENDCHAR
STARTCHAR quotedbl
ENCODING 34
SWIDTH 249 0
DWIDTH 7 0
BBX 8 9 1 12
BITMAP
11
33
37
66
66
66
6C
CC
CC
ENDCHAR
STARTCHAR numbersign
ENCODING 35
SWIDTH 417 0
DWIDTH 12 0
BBX 14 15 -1 3
BITMAP
0110
0330
0330
0620
1FFC
3FF8
0C40
0CC0
0CC0
7FF0
FFB0
1980
3180
3300
3300
ENDCHAR
STARTCHAR dollar
ENCODING 36
SWIDTH 292 0
DWIDTH 8 0
BBX 10 20 -1 0
BITMAP
0100
0100
0780
1CC0
18C0
10C0
38C0
1980
1800
1C00
0C00
0E00
0600
4600
C200
C600
C600
7C00
3000
3000
ENDCHAR
STARTCHAR percent
ENCODING 37
SWIDTH 574 0
DWIDTH 16 0
BBX 16 21 0 0
BITMAP
0001
1E07
3B06
310C
6118
6318
6330
6360
6660
3CC0
0180
0180
033C
0666
06C6
0CC6
18C6
3886
308C
60DC
E0F8
ENDCHAR
STARTCHAR ampersand
ENCODING 38
SWIDTH 460 0
DWIDTH 13 0
BBX 13 22 -1 -1
BITMAP
0070
00F0
0190
0310
0330
0360
07C0
0780
0700
0700
0F00
1F00
3B00
7300
E300
E380
C388
C3B0
C1E0
E1C0
7FC0
39E0
ENDCHAR
STARTCHAR quotesingle
ENCODING 39
SWIDTH 113 0
DWIDTH 3 0
BBX 4 9 1 12
BITMAP
10
30
30
60
60
60
60
C0
C0
ENDCHAR
STARTCHAR parenleft
ENCODING 40
SWIDTH 234 0
DWIDTH 7 0
BBX 8 26 1 -3
BITMAP
01
03
06
0C
18
18
38
30
30
60
60
60
E0
C0
C0
C0
C0
C0
C0
C0
C0
C0
C0
C0
C0
40
ENDCHAR
STARTCHAR parenright
ENCODING 41
SWIDTH 204 0
DWIDTH 6 0
BBX 8 26 -3 -3
BITMAP
02
03
03
03
03
03
03
03
03
03
03
03
03
07
06
06
06
0C
0C
1C
18
38
30
60
C0
80
ENDCHAR
STARTCHAR asterisk
ENCODING 42
SWIDTH 327 0
DWIDTH 9 0
BBX 10 9 1 11
BITMAP
0600
4E00
6440
FFC0
0FC0
3C00
7600
7700
2200
ENDCHAR
STARTCHAR plus
ENCODING 43
SWIDTH 350 0
DWIDTH 10 0
BBX 10 10 0 5
BITMAP
0600
0600
0C00
0C00
FFC0
FF80
1800
1800
1800
1000
ENDCHAR
STARTCHAR comma
ENCODING 44
SWIDTH 200 0
DWIDTH 6 0
BBX 4 5 -1 -3
BITMAP
60
F0
60
60
C0
ENDCHAR
STARTCHAR hyphen
ENCODING 45
SWIDTH 353 0
DWIDTH 10 0
BBX 9 3 0 7
BITMAP
7F80
FF80
8000
ENDCHAR
STARTCHAR period
ENCODING 46
SWIDTH 213 0
DWIDTH 6 0
BBX 4 3 -1 -1
BITMAP
70
F0
40
ENDCHAR
STARTCHAR slash
ENCODING 47
SWIDTH 262 0
DWIDTH 7 0
BBX 14 21 -3 0
BITMAP
0004
0018
0018
0030
0070
0060
00C0
00C0
0180
0180
0300
0600
0600
0C00
0C00
1800
1800
3000
3000
6000
E000
ENDCHAR
STARTCHAR zero
ENCODING 48
SWIDTH 489 0
DWIDTH 14 0
BBX 12 22 1 -1
BITMAP
0180
07C0
0E60
1C60
1860
3860
3070
7070
6070
6060
E060
E060
C060
C0E0
C0C0
C0C0
C1C0
C180
E300
6700
7C00
1800
ENDCHAR
STARTCHAR one
ENCODING 49
SWIDTH 272 0
DWIDTH 8 0
BBX 7 20 0 0
BITMAP
06
1E
1E
0E
0C
0C
0C
1C
18
18
18
38
30
30
30
70
60
60
60
E0
ENDCHAR
STARTCHAR two
ENCODING 50
SWIDTH 448 0
DWIDTH 13 0
BBX 13 22 -1 -1
BITMAP
0060
03F0
0638
0C18
1C18
1C38
0C38
0030
0070
0060
00E0
01C0
0380
0700
0E00
1C00
3800
7000
6380
FFE0
7FE0
4040
ENDCHAR
STARTCHAR three
ENCODING 51
SWIDTH 462 0
DWIDTH 13 0
BBX 12 22 0 -1
BITMAP
01C0
0FE0
1C30
1830
3830
3830
3C70
0060
00E0
01C0
0780
0F80
08C0
00E0
00E0
00E0
00C0
E0C0
E180
F380
7F00
3C00
ENDCHAR
STARTCHAR four
ENCODING 52
SWIDTH 452 0
DWIDTH 13 0
BBX 12 21 0 -1
BITMAP
00F0
01F0
01A0
0360
0660
0E60
1C40
38C0
70C0
E0C0
FFE0
FFE0
41A0
0180
0380
0380
0380
0380
0380
0700
0200
ENDCHAR
STARTCHAR five
ENCODING 53
SWIDTH 444 0
DWIDTH 12 0
BBX 13 21 0 -1
BITMAP
0FF8
0FF8
0C38
0810
1800
1800
1000
3100
37C0
3FC0
78E0
3060
0040
00C0
20C0
60C0
E180
E300
FF00
7E00
3800
ENDCHAR
STARTCHAR six
ENCODING 54
SWIDTH 477 0
DWIDTH 13 0
BBX 11 22 1 -1
BITMAP
0080
03E0
0660
0C60
1C60
18C0
3000
3000
7780
6CC0
78C0
F8E0
F0E0
E0C0
E0C0
C0C0
C1C0
E180
6380
6700
3E00
1800
ENDCHAR
STARTCHAR seven
ENCODING 55
SWIDTH 406 0
DWIDTH 11 0
BBX 12 20 1 0
BITMAP
3FE0
7FF0
6060
40E0
00C0
0180
0380
0300
0600
0E00
0C00
1C00
1800
3800
3800
7000
7000
7000
E000
F000
ENDCHAR
STARTCHAR eight
ENCODING 56
SWIDTH 444 0
DWIDTH 12 0
BBX 12 22 0 -1
BITMAP
0080
03F0
0610
0C10
0C30
1C30
1C60
1CE0
0FC0
0F00
0F00
1F80
3380
7180
61C0
C1C0
C1C0
C1C0
C180
C300
7E00
3C00
ENDCHAR
STARTCHAR nine
ENCODING 57
SWIDTH 462 0
DWIDTH 13 0
BBX 11 22 1 -1
BITMAP
0100
07C0
1C40
1860
3060
3060
6060
60E0
60E0
60E0
61E0
6160
63C0
7EC0
19C0
0180
8380
8300
C600
FE00
F800
6000
ENDCHAR
STARTCHAR colon
ENCODING 58
SWIDTH 226 0
DWIDTH 6 0
BBX 5 9 -1 -1
BITMAP
18
38
30
00
00
00
70
F0
40
ENDCHAR
STARTCHAR semicolon
ENCODING 59
SWIDTH 212 0
DWIDTH 6 0
BBX 5 11 -1 -3
BITMAP
38
78
70
00
00
00
60
F0
60
60
C0
ENDCHAR
STARTCHAR less
ENCODING 60
SWIDTH 271 0
DWIDTH 8 0
BBX 8 12 0 3
BITMAP
01
07
0C
38
70
E0
C0
60
70
30
38
18
ENDCHAR
STARTCHAR equal
ENCODING 61
SWIDTH 374 0
DWIDTH 10 0
BBX 10 6 0 6
BITMAP
7FC0
7FC0
0000
7F80
FF80
8000
ENDCHAR
STARTCHAR greater
ENCODING 62
SWIDTH 250 0
DWIDTH 7 0
BBX 9 12 -2 3
BITMAP
1800
0C00
0E00
0600
0700
0300
0380
0700
0E00
1800
7000
E000
ENDCHAR
STARTCHAR question
ENCODING 63
SWIDTH 413 0
DWIDTH 12 0
BBX 13 22 0 -1
BITMAP
03C0
0FF0
3C38
3818
3018
3838
0030
0070
0060
00C0
0380
1F00
3800
3000
3000
3000
7000
4000
0000
E000
F000
E000
ENDCHAR
STARTCHAR at
ENCODING 64
SWIDTH 648 0
DWIDTH 18 0
BBX 19 18 -1 0
BITMAP
00FC00
03C700
060180
1C10C0
187AC0
30DE40
719E60
633C60
660C60
C60860
CC1840
CC18C0
CC30C0
67F180
67B380
303700
183E00
0F1000
ENDCHAR
STARTCHAR A
ENCODING 65
SWIDTH 552 0
DWIDTH 15 0
BBX 17 28 -3 -7
BITMAP
000300
000F80
001980
003180
006180
006180
00C300
01C300
018300
018300
038300
030700
030600
070600
060600
0FFF80
7FFF00
4C0E00
1C0E00
1C0C00
1C0C00
380C00
381C00
381C00
701C00
E00E00
000E00
000800
ENDCHAR
STARTCHAR B
ENCODING 66
SWIDTH 607 0
DWIDTH 17 0
BBX 16 26 0 -5
BITMAP
01E0
07FC
1F0E
1F07
1707
0607
0607
0E07
0C0E
0C0E
0C1C
1C38
1BF0
1FF0
3B18
381C
300C
300E
700E
701C
701C
603C
E078
E0F0
E3E0
7F80
ENDCHAR
STARTCHAR C
ENCODING 67
SWIDTH 548 0
DWIDTH 15 0
BBX 16 26 0 -5
BITMAP
0030
00FC
0386
0706
0E06
0E07
1C0E
1C0E
381E
381C
7000
7000
7000
7000
E000
E000
E000
E000
E000
E000
E018
E010
7020
78E0
3FC0
1F00
ENDCHAR
STARTCHAR D
ENCODING 68
SWIDTH 632 0
DWIDTH 18 0
BBX 17 26 0 -5
BITMAP
00C000
0FF000
1FFC00
180E00
100600
060700
0E0300
0E0300
0E0380
0E0380
0C0380
0C0380
1C0380
1C0700
1C0700
180700
180E00
380E00
301C00
301C00
703800
707000
60E000
E1C000
FF8000
3E0000
ENDCHAR
STARTCHAR E
ENCODING 69
SWIDTH 523 0
DWIDTH 15 0
BBX 16 26 -1 -5
BITMAP
0018
00FE
0383
0703
0E03
0E07
1C07
1C0E
1C1C
1C00
1C00
0E00
0740
07E0
1C40
3800
7000
7000
E004
E004
E008
E018
7030
7860
3FC0
1F80
ENDCHAR
STARTCHAR F
ENCODING 70
SWIDTH 585 0
DWIDTH 16 0
BBX 15 26 1 -5
BITMAP
0020
0FFC
3C0E
7006
E006
F20C
7C0C
381C
0018
0038
0030
03F0
3FFC
38E0
00C0
01C0
01C0
0380
0380
0380
0700
0700
0700
0700
0F00
0F00
ENDCHAR
STARTCHAR G
ENCODING 71
SWIDTH 612 0
DWIDTH 17 0
BBX 16 26 0 -5
BITMAP
0018
00FE
01C6
0386
0707
0E07
0E07
1C0E
1C1E
381C
3808
3800
7800
7000
70FF
71FF
F00C
E00C
E01C
E018
6018
6030
7070
30E0
39C0
1F80
ENDCHAR
STARTCHAR H
ENCODING 72
SWIDTH 649 0
DWIDTH 18 0
BBX 18 25 0 -5
BITMAP
0300C0
0701C0
0701C0
060180
0E0380
0E0380
0E0300
0C0700
0C0700
1C0600
180600
19FF80
3FFF80
7B8F00
38CC00
304C00
307800
703800
703800
703800
603800
E03000
E03000
E03000
E07000
ENDCHAR
STARTCHAR I
ENCODING 73
SWIDTH 537 0
DWIDTH 15 0
BBX 17 26 -2 -5
BITMAP
000200
001E00
003B00
007300
00E700
00E700
00C600
00C600
01C600
00CE00
00CE00
00CE00
00CC00
005C00
001C00
01FF80
0FF800
3E3800
703000
E03000
E07000
E06000
E0C000
70C000
3D8000
1F0000
ENDCHAR
STARTCHAR J
ENCODING 74
SWIDTH 500 0
DWIDTH 14 0
BBX 19 25 -2 -5
BITMAP
00FFE0
00FFC0
000600
000E00
000E00
000C00
000C00
001C00
001C00
001C00
001800
003800
0C3800
1E3800
3E3000
787000
707000
E06000
C0E000
C0E000
C0C000
C1C000
C38000
E30000
7E0000
ENDCHAR
STARTCHAR K
ENCODING 75
SWIDTH 497 0
DWIDTH 14 0
BBX 16 29 -1 -8
BITMAP
0100
0387
0707
0707
0607
0E0E
0E0E
0C1C
0C1C
1C38
1C70
18E0
19C0
3F00
3FC0
7FE0
3070
3070
7070
7060
60E0
60E0
E0C0
E1C0
E1C0
E1C0
00C0
007E
0018
ENDCHAR
STARTCHAR L
ENCODING 76
SWIDTH 492 0
DWIDTH 14 0
BBX 18 27 -3 -6
BITMAP
000180
0007C0
000FC0
001CC0
001CC0
001980
003B80
003F00
003E00
087C00
0FF000
03F000
006000
006000
00E000
00E000
00C000
00C000
01C000
018000
038000
3F0000
7F0000
CFC300
F9FF00
207E00
000800
ENDCHAR
STARTCHAR M
ENCODING 77
SWIDTH 733 0
DWIDTH 21 0
BBX 23 25 -3 -5
BITMAP
00380E
00381E
00781E
00783E
007836
00D87C
00D86C
00D8EC
01D8CC
0198DC
019998
039998
039B18
131B38
333E38
633E30
671E30
471C30
C61C70
C61C70
CE1C70
CE0070
FC0070
7C0070
38003C
ENDCHAR
STARTCHAR N
ENCODING 78
SWIDTH 541 0
DWIDTH 15 0
BBX 19 26 -1 -5
BITMAP
0000C0
0703C0
0703E0
0F0760
0F0660
0F0E40
0F0EC0
1B0D80
1B3F00
1B0C00
1B1C00
3B1C00
331800
331800
311800
711800
713800
61B800
61B000
E1B000
E1B000
E1F000
E1E000
E0E000
E0E000
E0C000
ENDCHAR
STARTCHAR O
ENCODING 79
SWIDTH 567 0
DWIDTH 16 0
BBX 14 26 0 -5
BITMAP
00C0
01F8
03D8
068C
0E0C
1C0C
1C0C
180C
380C
300C
700C
700C
700C
600C
601C
E01C
E018
E018
E038
E030
E070
6060
60E0
71C0
3380
1F00
ENDCHAR
STARTCHAR P
ENCODING 80
SWIDTH 552 0
DWIDTH 15 0
BBX 17 26 -1 -5
BITMAP
003800
03FE00
0F0700
3F0300
1B0380
130380
060380
060380
060300
060700
0E0700
0C0E00
0C1C00
0C3800
1CF000
1FC000
180000
180000
380000
380000
300000
700000
700000
700000
E00000
C00000
ENDCHAR
STARTCHAR Q
ENCODING 81
SWIDTH 583 0
DWIDTH 16 0
BBX 14 26 1 -5
BITMAP
00C0
03F0
0718
0E1C
1C0C
380C
380C
700C
700C
E00C
E00C
E01C
E01C
C01C
C018
C038
E038
6070
7870
00E0
0CC0
7FC0
E380
E7C0
FE70
783C
ENDCHAR
STARTCHAR R
ENCODING 82
SWIDTH 560 0
DWIDTH 16 0
BBX 17 28 -1 -7
BITMAP
007C00
03FE00
0F0700
1F0380
1B0380
130380
030380
060380
060380
060300
060700
0E0E00
0C1C00
1F3800
3DF000
3FC000
1CC000
186000
186000
386000
386000
387000
307000
707000
F07000
603A00
003C00
001800
ENDCHAR
STARTCHAR S
ENCODING 83
SWIDTH 474 0
DWIDTH 13 0
BBX 15 26 -1 -5
BITMAP
00F0
03FC
070C
0E0E
0C0E
1C0E
1C0E
1C1C
1C10
0E00
0F00
0700
0380
03C0
01C0
00E0
00E0
0060
0060
6060
E060
E0C0
E0C0
E180
7F80
3E00
ENDCHAR
STARTCHAR T
ENCODING 84
SWIDTH 423 0
DWIDTH 12 0
BBX 14 25 1 -5
BITMAP
FFFC
FFFC
C300
0300
0700
0700
0600
0600
0E00
0C00
0C00
0C00
1C00
1800
1800
1800
3800
3800
3800
3000
7000
7000
7000
7000
6000
ENDCHAR
STARTCHAR U
ENCODING 85
SWIDTH 574 0
DWIDTH 16 0
BBX 17 25 0 -5
BITMAP
070380
0F0380
0E0700
0E0700
1C0700
1C0E00
1C0E00
180E00
380C00
380C00
381C00
301C00
701800
701800
603800
603800
603000
E03000
E07000
E07000
E0F000
E1F000
61B000
7F3000
3E3800
ENDCHAR
STARTCHAR V
ENCODING 86
SWIDTH 503 0
DWIDTH 14 0
BBX 15 25 1 -5
BITMAP
380C
380E
301C
7018
7038
6038
6030
6070
6070
E060
E0E0
E0E0
E0C0
E1C0
E1C0
E180
E380
6300
6300
6700
6600
6600
7C00
3C00
3800
ENDCHAR
STARTCHAR W
ENCODING 87
SWIDTH 817 0
DWIDTH 23 0
BBX 21 26 1 -5
BITMAP
000018
0E0038
1C1838
1C1818
383818
383818
303818
307038
707038
607038
607030
E06030
E06030
C06070
C0E060
C0E060
C0E060
C1E0C0
C1E0C0
C361C0
C36180
C76180
C66300
EC7600
7C3E00
783C00
ENDCHAR
STARTCHAR X
ENCODING 88
SWIDTH 579 0
DWIDTH 16 0
BBX 20 26 -1 -5
BITMAP
060020
1F00F0
1301E0
3383C0
318380
318700
398E00
1F8C00
0CDC00
00F800
00F000
00F000
00E000
00C000
01C000
03C000
03C000
07E000
0E6000
0C6000
1C6000
186000
387040
703080
E03F00
401E00
ENDCHAR
STARTCHAR Y
ENCODING 89
SWIDTH 532 0
DWIDTH 15 0
BBX 16 26 0 -5
BITMAP
0002
0E07
0E06
1C0E
1C0E
1C0E
380C
380C
381C
301C
3018
7038
7038
6078
6070
60F0
71B0
7F30
3C60
0060
0060
00C0
61C0
F780
FF00
7C00
ENDCHAR
STARTCHAR Z
ENCODING 90
SWIDTH 455 0
DWIDTH 13 0
BBX 16 25 -2 -5
BITMAP
07FF
0FFF
0C07
0007
000E
000E
001C
0038
0038
0070
00E0
01C0
0380
0300
0700
0E00
1C00
1800
3000
7000
6000
E000
FFF8
FFF0
E060
ENDCHAR
STARTCHAR bracketleft
ENCODING 91
SWIDTH 202 0
DWIDTH 6 0
BBX 9 26 -1 -3
BITMAP
0380
0780
0600
0600
0C00
0C00
0C00
0C00
1800
1800
1800
1800
3000
3000
3000
3000
6000
6000
6000
6000
4000
C000
C000
C000
F000
F000
ENDCHAR
STARTCHAR backslash
ENCODING 92
SWIDTH 273 0
DWIDTH 8 0
BBX 6 21 1 0
BITMAP
40
C0
C0
E0
60
60
60
60
60
60
60
30
30
30
30
30
30
18
18
18
1C
ENDCHAR
STARTCHAR bracketright
ENCODING 93
SWIDTH 216 0
DWIDTH 6 0
BBX 10 26 -3 -3
BITMAP
03C0
01C0
00C0
0080
0180
0180
0180
0180
0100
0300
0300
0300
0300
0600
0600
0600
0600
0C00
0C00
0C00
1800
1800
1800
3800
7000
F000
ENDCHAR
STARTCHAR asciicircum
ENCODING 94
SWIDTH 287 0
DWIDTH 8 0
BBX 10 10 -1 10
BITMAP
0380
0780
0F80
0D80
1980
1980
3180
31C0
60C0
C0C0
ENDCHAR
STARTCHAR underscore
ENCODING 95
SWIDTH 439 0
DWIDTH 12 0
BBX 14 2 -3 0
BITMAP
FFFC
FFFC
ENDCHAR
STARTCHAR grave
ENCODING 96
SWIDTH 567 0
DWIDTH 16 0
BBX 5 4 7 15
BITMAP
E0
F0
38
08
ENDCHAR
STARTCHAR a
ENCODING 97
SWIDTH 435 0
DWIDTH 12 0
BBX 14 12 0 0
BITMAP
0200
0F00
1B00
3380
6180
6184
C304
C308
C318
C730
FB60
F3C0
ENDCHAR
STARTCHAR b
ENCODING 98
SWIDTH 415 0
DWIDTH 12 0
BBX 14 20 0 0
BITMAP
0600
0E00
0E00
1C00
1C00
1C00
3C00
3800
3800
7800
7380
738C
63F0
E180
C180
C300
C300
4600
6E00
7C00
ENDCHAR
STARTCHAR c
ENCODING 99
SWIDTH 363 0
DWIDTH 10 0
BBX 12 13 0 -1
BITMAP
0400
1F00
3B00
7700
6600
C010
C010
C020
C040
C080
E300
7E00
1800
ENDCHAR
STARTCHAR d
ENCODING 100
SWIDTH 483 0
DWIDTH 14 0
BBX 16 21 0 -1
BITMAP
0008
0038
0038
0038
0038
0078
0078
0070
0070
0EF0
3BE0
71E0
61C0
C1C1
C182
C186
C30C
C718
FD30
F1E0
0080
ENDCHAR
STARTCHAR e
ENCODING 101
SWIDTH 372 0
DWIDTH 10 0
BBX 13 12 0 -1
BITMAP
0F00
3B00
3300
6600
EC08
D810
F030
C060
C0C0
E380
7E00
1800
ENDCHAR
STARTCHAR f
ENCODING 102
SWIDTH 325 0
DWIDTH 9 0
BBX 15 33 -3 -13
BITMAP
0040
01C0
01C0
01C0
01C0
0180
0180
0380
0300
0300
0300
0600
06FE
0780
1E00
1C00
1C00
1E00
1F00
1B00
1980
3180
30C0
30C0
30C0
61C0
6180
6180
6300
E700
FE00
FC00
7800
ENDCHAR
STARTCHAR g
ENCODING 103
SWIDTH 459 0
DWIDTH 13 0
BBX 15 25 0 -14
BITMAP
1E60
3BC0
71C0
61C0
61C0
C186
C18C
C198
C3B0
FD60
7BC0
0300
0F00
1B00
3600
6600
C600
C600
CC00
CC00
CC00
DC00
F800
7800
3000
ENDCHAR
STARTCHAR h
ENCODING 104
SWIDTH 465 0
DWIDTH 13 0
BBX 15 20 0 -1
BITMAP
1C00
0C00
1C00
1C00
1C00
1800
1800
3800
3380
37C0
3DC0
79C0
71C0
6182
6184
E308
C310
C3E0
C3C0
8100
ENDCHAR
STARTCHAR i
ENCODING 105
SWIDTH 274 0
DWIDTH 8 0
BBX 9 18 1 0
BITMAP
1800
1800
3800
0000
0000
0000
0000
3000
6000
E000
E000
C080
C100
C300
8600
8C00
D800
F000
ENDCHAR
STARTCHAR j
ENCODING 106
SWIDTH 267 0
DWIDTH 8 0
BBX 16 30 -6 -12
BITMAP
0038
0030
0030
0000
0000
0000
0000
0040
00E0
00C0
01C0
01C1
0182
0186
038C
0398
0360
03C0
0380
0700
0E00
1E00
3600
6600
6C00
CC00
CC00
DC00
5800
7800
ENDCHAR
STARTCHAR k
ENCODING 107
SWIDTH 440 0
DWIDTH 12 0
BBX 15 20 -1 -1
BITMAP
0E00
0E00
0E00
0E00
0C00
0C00
0C00
1800
19C0
1BE0
16E0
38C0
3980
3702
2F84
618C
6118
6330
C3E0
0180
ENDCHAR
STARTCHAR l
ENCODING 108
SWIDTH 218 0
DWIDTH 6 0
BBX 6 20 0 -1
BITMAP
1C
1C
1C
1C
18
18
38
38
30
30
70
70
60
60
60
E0
C0
C0
C0
80
ENDCHAR
STARTCHAR m
ENCODING 109
SWIDTH 717 0
DWIDTH 20 0
BBX 22 12 0 -1
BITMAP
018200
33CF00
37DF00
38F300
78E304
70C304
61C708
618718
E18630
E38660
C307C0
800300
ENDCHAR
STARTCHAR n
ENCODING 110
SWIDTH 461 0
DWIDTH 13 0
BBX 16 12 -1 -1
BITMAP
09C0
1BE0
1EE0
3CE0
38C1
30C3
30C2
71C4
618C
6198
61F0
80C0
ENDCHAR
STARTCHAR o
ENCODING 111
SWIDTH 393 0
DWIDTH 11 0
BBX 14 12 0 -1
BITMAP
1E00
3B00
6304
6118
F330
FBC0
DF80
C300
C600
CE00
7C00
1000
ENDCHAR
STARTCHAR p
ENCODING 112
SWIDTH 451 0
DWIDTH 13 0
BBX 18 23 -3 -12
BITMAP
0E3000
06F800
079800
071800
0E1840
0C1880
0C3180
0C7300
1F6600
1FCC00
1FF800
1B0000
300000
300000
300000
300000
700000
600000
600000
600000
E00000
E00000
400000
ENDCHAR
STARTCHAR q
ENCODING 113
SWIDTH 462 0
DWIDTH 13 0
BBX 14 24 0 -13
BITMAP
0E60
1BE0
31C0
61C0
E0C0
E1C0
C180
C184
C388
C798
7F30
3B60
03C0
0380
0700
0600
0600
0E00
0E00
1E00
1E00
0E00
0E00
0400
ENDCHAR
STARTCHAR r
ENCODING 114
SWIDTH 406 0
DWIDTH 11 0
BBX 16 14 -2 -1
BITMAP
0600
0E00
0E00
0E00
0FC0
18C0
18C1
30C2
3186
638C
4318
C330
83E0
01C0
ENDCHAR
STARTCHAR s
ENCODING 115
SWIDTH 351 0
DWIDTH 10 0
BBX 8 13 0 -1
BITMAP
0E
1C
38
1C
2C
6C
46
86
07
63
66
7C
38
ENDCHAR
STARTCHAR t
ENCODING 116
SWIDTH 301 0
DWIDTH 8 0
BBX 14 20 -2 -1
BITMAP
0380
0380
0380
07E0
FFFC
3700
0700
0E00
0E00
0E00
0C00
0C00
1808
1810
1830
1060
10C0
1980
1F00
0400
ENDCHAR
STARTCHAR u
ENCODING 117
SWIDTH 468 0
DWIDTH 13 0
BBX 15 11 0 0
BITMAP
1040
30C0
71C0
61C0
6182
E382
C384
C30C
C318
E7B0
7DE0
ENDCHAR
STARTCHAR v
ENCODING 118
SWIDTH 427 0
DWIDTH 12 0
BBX 15 12 0 -1
BITMAP
20C0
61C0
E1C0
E1C2
E18C
C3F0
C300
E600
6C00
7800
7800
2000
ENDCHAR
STARTCHAR w
ENCODING 119
SWIDTH 646 0
DWIDTH 18 0
BBX 21 12 0 -1
BITMAP
30C300
71C700
618E00
618E08
638630
E30FC0
C10C00
C30C00
C71800
C5B800
79F000
200000
ENDCHAR
STARTCHAR x
ENCODING 120
SWIDTH 399 0
DWIDTH 11 0
BBX 13 12 -1 -1
BITMAP
3060
38E0
19C0
1B80
0F00
0E00
1C08
3C08
3630
67E0
C3C0
8100
ENDCHAR
STARTCHAR y
ENCODING 121
SWIDTH 406 0
DWIDTH 11 0
BBX 10 23 0 -12
BITMAP
20C0
71C0
61C0
61C0
E180
C180
C380
C700
C700
CF00
FB00
7600
0600
0600
0600
0E00
0C00
0C00
0C00
1C00
1C00
1800
0800
ENDCHAR
STARTCHAR z
ENCODING 122
SWIDTH 448 0
DWIDTH 13 0
BBX 15 23 -1 -12
BITMAP
07F0
0FF0
0860
0060
00C0
01C0
0182
0306
07EC
0E78
0460
01E0
06C0
0CC0
18C0
3180
6180
6380
C300
C700
CE00
FC00
7800
ENDCHAR
STARTCHAR braceleft
ENCODING 123
SWIDTH 243 0
DWIDTH 7 0
BBX 10 26 -1 -3
BITMAP
01C0
03C0
0780
0600
0600
0C00
0400
0600
0600
0C00
0C00
1800
3000
3000
1800
1800
1800
3000
3000
6000
6000
6000
E000
7000
7800
3000
ENDCHAR
STARTCHAR bar
ENCODING 124
SWIDTH 253 0
DWIDTH 7 0
BBX 7 21 0 0
BITMAP
02
06
0E
0C
0C
0C
18
18
18
18
30
30
30
30
70
60
60
60
60
E0
E0
ENDCHAR
STARTCHAR braceright
ENCODING 125
SWIDTH 243 0
DWIDTH 7 0
BBX 10 26 -3 -3
BITMAP
0300
0380
03C0
00C0
00C0
00C0
0180
0180
0300
0300
0200
0200
0300
0180
0700
0C00
0C00
0C00
0C00
0C00
0C00
0C00
1C00
3800
7800
F000
ENDCHAR
STARTCHAR asciitilde
ENCODING 126
SWIDTH 329 0
DWIDTH 9 0
BBX 11 4 -1 8
BITMAP
0020
7EE0
FFC0
4000
ENDCHAR
STARTCHAR uni00A0
ENCODING 160
SWIDTH 280 0
DWIDTH 8 0
BBX 1 1 0 0
BITMAP
00
ENDCHAR
STARTCHAR exclamdown
ENCODING 161
SWIDTH 249 0
DWIDTH 7 0
BBX 9 22 -1 -1
BITMAP
0100
0780
0700
0000
0000
0600
0E00
0C00
0C00
0C00
1C00
1C00
1800
1800
3800
3800
3000
7000
7000
7000
7000
C000
ENDCHAR
STARTCHAR cent
ENCODING 162
SWIDTH 322 0
DWIDTH 9 0
BBX 9 20 0 0
BITMAP
0300
0300
0300
0F80
1880
3180
7380
6380
6300
C000
C000
C000
C000
C000
C200
C600
7C00
3000
3000
2000
ENDCHAR
STARTCHAR sterling
ENCODING 163
SWIDTH 318 0
DWIDTH 9 0
BBX 11 18 -1 1
BITMAP
03C0
0660
0C60
0C60
0AC0
19C0
1800
1800
1000
7E00
3C00
3000
2000
6000
4000
DF00
FF00
8000
ENDCHAR
STARTCHAR currency
ENCODING 164
SWIDTH 347 0
DWIDTH 10 0
BBX 10 10 0 5
BITMAP
2040
76C0
3F80
1100
3100
2300
3600
7F00
C300
8100
ENDCHAR
STARTCHAR yen
ENCODING 165
SWIDTH 326 0
DWIDTH 9 0
BBX 11 17 0 2
BITMAP
1000
3060
30C0
30C0
3180
3100
1300
1E00
0C00
1800
7E00
7E00
1800
FE00
3000
3000
3000
ENDCHAR
STARTCHAR brokenbar
ENCODING 166
SWIDTH 253 0
DWIDTH 7 0
BBX 7 21 0 0
BITMAP
02
06
0E
0C
0C
0C
18
18
18
10
00
00
30
30
30
60
60
60
60
E0
E0
ENDCHAR
STARTCHAR section
ENCODING 167
SWIDTH 297 0
DWIDTH 8 0
BBX 11 22 -1 -1
BITMAP
0180
0640
0C60
1860
18C0
1800
0C00
0600
0F00
3180
7180
6180
6300
3600
1C00
0C00
0600
6600
C700
C600
4C00
3000
ENDCHAR
STARTCHAR dieresis
ENCODING 168
SWIDTH 567 0
DWIDTH 16 0
BBX 7 2 6 16
BITMAP
EE
CE
ENDCHAR
STARTCHAR copyright
ENCODING 169
SWIDTH 456 0
DWIDTH 13 0
BBX 13 14 1 6
BITMAP
0FC0
3860
2330
6790
CC98
C998
9818
9818
9090
9930
CE60
40C0
3980
0E00
ENDCHAR
STARTCHAR ordfeminine
ENCODING 170
SWIDTH 373 0
DWIDTH 10 0
BBX 14 14 -2 -1
BITMAP
0780
0D80
18C0
18C0
3080
3180
318C
3398
3FB0
38E0
0000
1FC0
7FC0
E000
ENDCHAR
STARTCHAR guillemotleft
ENCODING 171
SWIDTH 346 0
DWIDTH 10 0
BBX 10 11 -1 0
BITMAP
0440
08C0
1980
3300
6600
CE00
EE00
6600
2600
3300
1980
ENDCHAR
STARTCHAR logicalnot
ENCODING 172
SWIDTH 512 0
DWIDTH 14 0
BBX 14 6 0 5
BITMAP
7FFC
FFFC
000C
0018
0018
0038
ENDCHAR
STARTCHAR sfthyphen
ENCODING 173
SWIDTH 353 0
DWIDTH 10 0
BBX 9 3 0 7
BITMAP
7F80
FF80
8000
ENDCHAR
STARTCHAR registered
ENCODING 174
SWIDTH 456 0
DWIDTH 13 0
BBX 13 14 1 6
BITMAP
0FC0
3860
27B0
6C90
C498
C598
8F18
8E18
8B10
9930
D1E0
40C0
3980
0E00
ENDCHAR
STARTCHAR macron
ENCODING 175
SWIDTH 567 0
DWIDTH 16 0
BBX 7 2 6 16
BITMAP
FE
FE
ENDCHAR
STARTCHAR degree
ENCODING 176
SWIDTH 144 0
DWIDTH 4 0
BBX 3 4 2 15
BITMAP
60
A0
A0
40
ENDCHAR
STARTCHAR twosuperior
ENCODING 178
SWIDTH 268 0
DWIDTH 8 0
BBX 9 14 0 7
BITMAP
0700
1B00
1180
3300
1B00
0300
0600
0C00
1800
3000
6000
FE00
7E00
0200
ENDCHAR
STARTCHAR threesuperior
ENCODING 179
SWIDTH 262 0
DWIDTH 7 0
BBX 7 13 1 8
BITMAP
1C
3E
62
62
76
0C
18
3C
06
04
CC
CC
F8
ENDCHAR
STARTCHAR acute
ENCODING 180
SWIDTH 567 0
DWIDTH 16 0
BBX 5 4 7 15
BITMAP
18
38
F0
80
ENDCHAR
STARTCHAR mu
ENCODING 181
SWIDTH 453 0
DWIDTH 13 0
BBX 17 15 -4 -5
BITMAP
061800
063800
0C3000
0C3000
0C7000
1C6080
186100
186300
1FB600
3F3C00
300000
300000
300000
600000
E00000
ENDCHAR
STARTCHAR paragraph
ENCODING 182
SWIDTH 411 0
DWIDTH 12 0
BBX 13 22 1 -1
BITMAP
0080
0130
3FF8
7FE0
FF60
FE60
FE40
FEC0
FEC0
7EC0
3C80
0C80
0D80
0D80
0980
1900
1900
1B00
1300
3200
3600
4000
ENDCHAR
STARTCHAR periodcentered
ENCODING 183
SWIDTH 168 0
DWIDTH 5 0
BBX 4 3 0 8
BITMAP
30
F0
E0
ENDCHAR
STARTCHAR cedilla
ENCODING 184
SWIDTH 567 0
DWIDTH 16 0
BBX 5 7 7 -4
BITMAP
20
60
70
F8
18
30
C0
ENDCHAR
STARTCHAR onesuperior
ENCODING 185
SWIDTH 150 0
DWIDTH 4 0
BBX 4 13 1 8
BITMAP
10
30
70
30
30
20
60
60
60
40
C0
C0
C0
ENDCHAR
STARTCHAR ordmasculine
ENCODING 186
SWIDTH 319 0
DWIDTH 9 0
BBX 13 14 -2 -1
BITMAP
0F00
1D80
1888
3890
38E0
3FC0
2180
3300
3300
1E00
0000
3F80
7F00
C000
ENDCHAR
STARTCHAR guillemotright
ENCODING 187
SWIDTH 346 0
DWIDTH 10 0
BBX 11 11 -2 0
BITMAP
2200
3300
1980
1980
0CC0
0EE0
0CC0
1980
3300
6600
CC00
ENDCHAR
STARTCHAR onequarter
ENCODING 188
SWIDTH 579 0
DWIDTH 16 0
BBX 17 21 -1 0
BITMAP
040180
0C0300
1C0600
0C0C00
0C0C00
081800
183000
186000
186100
10C700
318F00
318E00
331A00
063600
066600
0CFF00
186600
180C00
300C00
700C00
E00C00
ENDCHAR
STARTCHAR onehalf
ENCODING 189
SWIDTH 603 0
DWIDTH 17 0
BBX 17 22 -1 -1
BITMAP
040080
0E0300
1C0600
0C0E00
0C0C00
0C1800
083000
183000
186300
10CD80
10D980
319980
331980
070300
060300
0C0600
1C0C00
181800
303000
707E00
607F00
802100
ENDCHAR
STARTCHAR threequarters
ENCODING 190
SWIDTH 669 0
DWIDTH 19 0
BBX 17 21 1 0
BITMAP
1C0080
3E0300
620700
620600
760C00
0C1800
181800
3C3000
066100
046380
CCC700
CD8F00
F99B00
033300
067200
067F00
0C2700
180600
380600
300E00
700E00
ENDCHAR
STARTCHAR questiondown
ENCODING 191
SWIDTH 413 0
DWIDTH 12 0
BBX 13 22 -1 -1
BITMAP
0030
0078
0070
0000
0030
0060
0060
00E0
00E0
00C0
07C0
1E00
3800
7000
6000
E000
C0E0
C0E0
C0E0
E1C0
7F80
3E00
ENDCHAR
STARTCHAR Agrave
ENCODING 192
SWIDTH 552 0
DWIDTH 15 0
BBX 17 33 -3 -7
BITMAP
000600
000F00
000180
000080
000000
000300
000F80
001980
003180
006180
006180
00C300
01C300
018300
018300
038300
030700
030600
070600
060600
0FFF80
7FFF00
4C0E00
1C0E00
1C0C00
1C0C00
380C00
381C00
381C00
701C00
E00E00
000E00
000800
ENDCHAR
STARTCHAR Aacute
ENCODING 193
SWIDTH 552 0
DWIDTH 15 0
BBX 17 33 -3 -7
BITMAP
000180
000380
000F00
000400
000000
000300
000F80
001980
003180
006180
006180
00C300
01C300
018300
018300
038300
030700
030600
070600
060600
0FFF80
7FFF00
4C0E00
1C0E00
1C0C00
1C0C00
380C00
381C00
381C00
701C00
E00E00
000E00
000800
ENDCHAR
STARTCHAR Acircumflex
ENCODING 194
SWIDTH 552 0
DWIDTH 15 0
BBX 19 32 -3 -7
BITMAP
000380
0006C0
001CE0
000000
000300
000F80
001980
003180
006180
006180
00C300
01C300
018300
018300
038300
030700
030600
070600
060600
0FFF80
7FFF00
4C0E00
1C0E00
1C0C00
1C0C00
380C00
381C00
381C00
701C00
E00E00
000E00
000800
ENDCHAR
STARTCHAR Atilde
ENCODING 195
SWIDTH 552 0
DWIDTH 15 0
BBX 20 32 -3 -7
BITMAP
000010
001FF0
0019E0
000000
000300
000F80
001980
003180
006180
006180
00C300
01C300
018300
018300
038300
030700
030600
070600
060600
0FFF80
7FFF00
4C0E00
1C0E00
1C0C00
1C0C00
380C00
381C00
381C00
701C00
E00E00
000E00
000800
ENDCHAR
STARTCHAR Adieresis
ENCODING 196
SWIDTH 552 0
DWIDTH 15 0
BBX 19 31 -3 -7
BITMAP
000EE0
000CE0
000000
000300
000F80
001980
003180
006180
006180
00C300
01C300
018300
018300
038300
030700
030600
070600
060600
0FFF80
7FFF00
4C0E00
1C0E00
1C0C00
1C0C00
380C00
381C00
381C00
701C00
E00E00
000E00
000800
ENDCHAR
STARTCHAR Aring
ENCODING 197
SWIDTH 552 0
DWIDTH 15 0
BBX 17 31 -3 -7
BITMAP
000300
000780
000580
000300
000F80
001980
003180
006180
00E180
00C300
01C300
018300
018300
038300
030700
030600
070600
060600
0FFF80
7FFF00
4C0E00
1C0E00
1C0C00
1C0C00
380C00
381C00
381C00
701C00
E00E00
000E00
000800
ENDCHAR
STARTCHAR AE
ENCODING 198
SWIDTH 869 0
DWIDTH 24 0
BBX 28 28 -3 -7
BITMAP
00030300
000F9FE0
0019B860
0031F030
0061E070
0061C070
00C3C060
01C3C0E0
0183C1C0
0183C000
0383C000
0307E000
03067C00
07067E00
0607CC00
0FFF8000
7FFF0000
4C0E0000
1C0E0040
1C0E0080
1C0E0080
380E0100
381F0300
381F8600
701FFC00
E00FF800
000E0000
00080000
ENDCHAR
STARTCHAR Ccedilla
ENCODING 199
SWIDTH 548 0
DWIDTH 15 0
BBX 16 32 0 -11
BITMAP
0030
00FC
0386
0706
0E06
0E07
1C0E
1C0E
381E
381C
7000
7000
7000
7000
E000
E000
E000
E000
E000
E000
E018
E010
7020
78E0
3FC0
1F00
0C00
0800
0F00
0300
0700
1C00
ENDCHAR
STARTCHAR Egrave
ENCODING 200
SWIDTH 523 0
DWIDTH 15 0
BBX 16 31 -1 -5
BITMAP
0030
0038
000C
0004
0000
0018
00FE
0383
0703
0E03
0E07
1C07
1C0E
1C1C
1C00
1C00
0E00
0740
07E0
1C40
3800
7000
7000
E004
E004
E008
E018
7030
7860
3FC0
1F80
ENDCHAR
STARTCHAR Eacute
ENCODING 201
SWIDTH 523 0
DWIDTH 15 0
BBX 16 31 -1 -5
BITMAP
0006
000E
003C
0020
0000
0018
00FE
0383
0703
0E03
0E07
1C07
1C0E
1C1C
1C00
1C00
0E00
0740
07E0
1C40
3800
7000
7000
E004
E004
E008
E018
7030
7860
3FC0
1F80
ENDCHAR
STARTCHAR Ecircumflex
ENCODING 202
SWIDTH 523 0
DWIDTH 15 0
BBX 17 30 -1 -5
BITMAP
000E00
001E00
006380
000000
001800
00FE00
038300
070300
0E0300
0E0700
1C0700
1C0E00
1C1C00
1C0000
1C0000
0E0000
074000
07E000
1C4000
380000
700000
700000
E00400
E00400
E00800
E01800
703000
786000
3FC000
1F8000
ENDCHAR
STARTCHAR Edieresis
ENCODING 203
SWIDTH 523 0
DWIDTH 15 0
BBX 17 29 -1 -5
BITMAP
007780
006300
000000
001800
00FE00
038300
070300
0E0300
0E0700
1C0700
1C0E00
1C1C00
1C0000
1C0000
0E0000
074000
07E000
1C4000
380000
700000
700000
E00400
E00400
E00800
E01800
703000
786000
3FC000
1F8000
ENDCHAR
STARTCHAR Igrave
ENCODING 204
SWIDTH 537 0
DWIDTH 15 0
BBX 17 31 -2 -5
BITMAP
001C00
001E00
000700
000100
000000
000200
001E00
003B00
007300
00E700
00E700
00C600
00C600
01C600
00CE00
00CE00
00CE00
00CC00
005C00
001C00
01FF80
0FF800
3E3800
703000
E03000
E07000
E06000
E0C000
70C000
3D8000
1F0000
ENDCHAR
STARTCHAR Iacute
ENCODING 205
SWIDTH 537 0
DWIDTH 15 0
BBX 17 31 -2 -5
BITMAP
000180
000380
000E00
000800
000000
000200
001E00
003B00
007300
00E700
00E700
00C600
00C600
01C600
00CE00
00CE00
00CE00
00CC00
005C00
001C00
01FF80
0FF800
3E3800
703000
E03000
E07000
E06000
E0C000
70C000
3D8000
1F0000
ENDCHAR
STARTCHAR Icircumflex
ENCODING 206
SWIDTH 537 0
DWIDTH 15 0
BBX 19 30 -2 -5
BITMAP
000380
0007C0
001CE0
000000
000200
001E00
003B00
007300
00E700
00E700
00C600
00C600
01C600
00CE00
00CE00
00CE00
00CC00
005C00
001C00
01FF80
0FF800
3E3800
703000
E03000
E07000
E06000
E0C000
70C000
3D8000
1F0000
ENDCHAR
STARTCHAR Idieresis
ENCODING 207
SWIDTH 537 0
DWIDTH 15 0
BBX 18 29 -2 -5
BITMAP
001DC0
0019C0
000000
000200
001E00
003B00
007300
00E700
00E700
00C600
00C600
01C600
00CE00
00CE00
00CE00
00CC00
005C00
001C00
01FF80
0FF800
3E3800
703000
E03000
E07000
E06000
E0C000
70C000
3D8000
1F0000
ENDCHAR
STARTCHAR Eth
ENCODING 208
SWIDTH 632 0
DWIDTH 18 0
BBX 18 26 -1 -5
BITMAP
006000
07F800
0FFE00
0C0700
080300
030380
070180
070180
0701C0
0701C0
0601C0
0601C0
7FC1C0
FFC380
8E0380
0C0380
1C0700
1C0700
180E00
180E00
381C00
383800
307000
70E000
7FC000
1F0000
ENDCHAR
STARTCHAR Ntilde
ENCODING 209
SWIDTH 541 0
DWIDTH 15 0
BBX 19 29 -1 -5
BITMAP
000100
01FF00
008E00
0000C0
0703C0
0703E0
0F0760
0F0660
0F0E40
0F0EC0
1B0D80
1B3F00
1B0C00
1B1C00
3B1C00
331800
331800
311800
711800
713800
61B800
61B000
E1B000
E1B000
E1F000
E1E000
E0E000
E0E000
E0C000
ENDCHAR
STARTCHAR Ograve
ENCODING 210
SWIDTH 567 0
DWIDTH 16 0
BBX 14 31 0 -5
BITMAP
0060
0070
0018
0008
0000
00C0
01F8
03D8
068C
0E0C
1C0C
1C0C
180C
380C
300C
700C
700C
700C
600C
601C
E01C
E018
E018
E038
E030
E070
6060
60E0
71C0
3380
1F00
ENDCHAR
STARTCHAR Oacute
ENCODING 211
SWIDTH 567 0
DWIDTH 16 0
BBX 14 31 0 -5
BITMAP
0008
0038
0070
0040
0000
00C0
01F8
03D8
068C
0E0C
1C0C
1C0C
180C
380C
300C
700C
700C
700C
600C
601C
E01C
E018
E018
E038
E030
E070
6060
60E0
71C0
3380
1F00
ENDCHAR
STARTCHAR Ocircumflex
ENCODING 212
SWIDTH 567 0
DWIDTH 16 0
BBX 15 30 0 -5
BITMAP
0038
007C
01CE
0000
00C0
01F8
03D8
068C
0E0C
1C0C
1C0C
180C
380C
300C
700C
700C
700C
600C
601C
E01C
E018
E018
E038
E030
E070
6060
60E0
71C0
3380
1F00
ENDCHAR
STARTCHAR Otilde
ENCODING 213
SWIDTH 567 0
DWIDTH 16 0
BBX 15 30 0 -5
BITMAP
0002
03FE
011C
0000
00C0
01F8
03D8
068C
0E0C
1C0C
1C0C
180C
380C
300C
700C
700C
700C
600C
601C
E01C
E018
E018
E038
E030
E070
6060
60E0
71C0
3380
1F00
ENDCHAR
STARTCHAR Odieresis
ENCODING 214
SWIDTH 567 0
DWIDTH 16 0
BBX 15 29 0 -5
BITMAP
01CE
01CC
0000
00C0
01F8
03D8
068C
0E0C
1C0C
1C0C
180C
380C
300C
700C
700C
700C
600C
601C
E01C
E018
E018
E038
E030
E070
6060
60E0
71C0
3380
1F00
ENDCHAR
STARTCHAR multiply
ENCODING 215
SWIDTH 281 0
DWIDTH 8 0
BBX 10 10 -1 4
BITMAP
31C0
1980
1B00
1E00
0C00
1C00
3C00
6600
C600
0200
ENDCHAR
STARTCHAR Oslash
ENCODING 216
SWIDTH 597 0
DWIDTH 17 0
BBX 18 27 -1 -6
BITMAP
0071C0
00FF80
01E700
03C700
070E00
060F00
0E1F00
0C1F00
1C3F00
1C3700
187700
186700
38C700
39C700
398600
338600
330E00
370E00
360C00
3E1C00
3C1800
3C3800
383000
386000
7DC000
7F8000
E00000
ENDCHAR
STARTCHAR Ugrave
ENCODING 217
SWIDTH 574 0
DWIDTH 16 0
BBX 17 30 0 -5
BITMAP
006000
007000
001800
000800
000000
070380
0F0380
0E0700
0E0700
1C0700
1C0E00
1C0E00
180E00
380C00
380C00
381C00
301C00
701800
701800
603800
603800
603000
E03000
E07000
E07000
E0F000
E1F000
61B000
7F3000
3E3800
ENDCHAR
STARTCHAR Uacute
ENCODING 218
SWIDTH 574 0
DWIDTH 16 0
BBX 17 30 0 -5
BITMAP
000600
000E00
003800
002000
000000
070380
0F0380
0E0700
0E0700
1C0700
1C0E00
1C0E00
180E00
380C00
380C00
381C00
301C00
701800
701800
603800
603800
603000
E03000
E07000
E07000
E0F000
E1F000
61B000
7F3000
3E3800
ENDCHAR
STARTCHAR Ucircumflex
ENCODING 219
SWIDTH 574 0
DWIDTH 16 0
BBX 17 30 0 -5
BITMAP
001C00
003C00
00C700
000000
000000
070380
0F0380
0E0700
0E0700
1C0700
1C0E00
1C0E00
180E00
380C00
380C00
381C00
301C00
701800
701800
603800
603800
603000
E03000
E07000
E07000
E0F000
E1F000
61B000
7F3000
3E3800
ENDCHAR
STARTCHAR Udieresis
ENCODING 220
SWIDTH 574 0
DWIDTH 16 0
BBX 17 29 0 -5
BITMAP
00EE00
00CE00
000000
000000
070380
0F0380
0E0700
0E0700
1C0700
1C0E00
1C0E00
180E00
380C00
380C00
381C00
301C00
701800
701800
603800
603800
603000
E03000
E07000
E07000
E0F000
E1F000
61B000
7F3000
3E3800
ENDCHAR
STARTCHAR Yacute
ENCODING 221
SWIDTH 532 0
DWIDTH 15 0
BBX 16 30 0 -5
BITMAP
000C
001C
0070
0040
0002
0E07
0E06
1C0E
1C0E
1C0E
380C
380C
381C
301C
3018
7038
7038
6078
6070
60F0
71B0
7F30
3C60
0060
0060
00C0
61C0
F780
FF00
7C00
ENDCHAR
STARTCHAR Thorn
ENCODING 222
SWIDTH 569 0
DWIDTH 16 0
BBX 16 25 -1 -5
BITMAP
0300
0700
0700
0600
06F8
0FFC
1E0E
3C07
3C07
3C07
1C07
1807
1807
3806
380E
301C
3038
3070
71E0
7F80
7000
6000
E000
E000
E000
ENDCHAR
STARTCHAR germandbls
ENCODING 223
SWIDTH 495 0
DWIDTH 14 0
BBX 15 32 -3 -13
BITMAP
0010
00FC
01CC
018C
038C
031C
0318
0718
0630
0630
0E30
0C18
0C1C
0C0C
F80E
3806
1C66
36E6
337C
3338
3180
6180
6180
6180
6180
C300
C300
C700
CE00
FC00
F800
F000
ENDCHAR
STARTCHAR agrave
ENCODING 224
SWIDTH 435 0
DWIDTH 12 0
BBX 14 17 0 0
BITMAP
0C00
0E00
0300
0100
0000
0200
0F00
1B00
3380
6180
6184
C304
C308
C318
C730
FB60
F3C0
ENDCHAR
STARTCHAR aacute
ENCODING 225
SWIDTH 435 0
DWIDTH 12 0
BBX 14 17 0 0
BITMAP
0180
0380
0F00
0800
0000
0200
0F00
1B00
3380
6180
6184
C304
C308
C318
C730
FB60
F3C0
ENDCHAR
STARTCHAR acircumflex
ENCODING 226
SWIDTH 435 0
DWIDTH 12 0
BBX 14 16 0 0
BITMAP
0780
0D80
38C0
0000
0200
0F00
1B00
3380
6180
6184
C304
C308
C318
C730
FB60
F3C0
ENDCHAR
STARTCHAR atilde
ENCODING 227
SWIDTH 435 0
DWIDTH 12 0
BBX 14 16 0 0
BITMAP
0020
3FE0
31C0
0000
0200
0F00
1B00
3380
6180
6184
C304
C308
C318
C730
FB60
F3C0
ENDCHAR
STARTCHAR adieresis
ENCODING 228
SWIDTH 435 0
DWIDTH 12 0
BBX 14 15 0 0
BITMAP
0EE0
1CC0
0000
0200
0F00
1B00
3380
6180
6184
C304
C308
C318
C730
FB60
F3C0
ENDCHAR
STARTCHAR aring
ENCODING 229
SWIDTH 435 0
DWIDTH 12 0
BBX 14 16 0 0
BITMAP
0700
0500
0F00
0600
0200
0F00
1B00
3380
6180
6184
C304
C308
C318
C730
FB60
F3C0
ENDCHAR
STARTCHAR ae
ENCODING 230
SWIDTH 594 0
DWIDTH 17 0
BBX 19 13 0 -1
BITMAP
020000
0F3C00
1B6C00
33CC00
619800
63B820
C3E040
C3C0C0
C30180
C78300
FD8E00
F1F800
006000
ENDCHAR
STARTCHAR ccedilla
ENCODING 231
SWIDTH 363 0
DWIDTH 10 0
BBX 12 18 0 -6
BITMAP
0400
1F00
3B00
7700
6600
C010
C010
C020
C040
C080
E300
7E00
3800
3000
3C00
0C00
0C00
7800
ENDCHAR
STARTCHAR egrave
ENCODING 232
SWIDTH 372 0
DWIDTH 10 0
BBX 13 18 0 -1
BITMAP
1C00
1E00
0700
0100
0000
0000
0F00
3B00
3300
6600
EC08
D810
F030
C060
C0C0
E380
7E00
1800
ENDCHAR
STARTCHAR eacute
ENCODING 233
SWIDTH 372 0
DWIDTH 10 0
BBX 13 18 0 -1
BITMAP
0180
0780
0E00
0800
0000
0000
0F00
3B00
3300
6600
EC08
D810
F030
C060
C0C0
E380
7E00
1800
ENDCHAR
STARTCHAR ecircumflex
ENCODING 234
SWIDTH 372 0
DWIDTH 10 0
BBX 13 17 0 -1
BITMAP
0700
0D80
39C0
0000
0000
0F00
3B00
3300
6600
EC08
D810
F030
C060
C0C0
E380
7E00
1800
ENDCHAR
STARTCHAR edieresis
ENCODING 235
SWIDTH 372 0
DWIDTH 10 0
BBX 13 16 0 -1
BITMAP
1DC0
1980
0000
0000
0F00
3B00
3300
6600
EC08
D810
F030
C060
C0C0
E380
7E00
1800
ENDCHAR
STARTCHAR igrave
ENCODING 236
SWIDTH 274 0
DWIDTH 8 0
BBX 10 17 0 0
BITMAP
6000
F000
1800
0800
0000
0000
1800
3000
7000
7000
6040
6080
6180
4300
4600
6C00
7800
ENDCHAR
STARTCHAR iacute
ENCODING 237
SWIDTH 274 0
DWIDTH 8 0
BBX 9 17 1 0
BITMAP
0600
0E00
3C00
1000
0000
0000
3000
6000
E000
E000
C080
C100
C300
8600
8C00
D800
F000
ENDCHAR
STARTCHAR icircumflex
ENCODING 238
SWIDTH 274 0
DWIDTH 8 0
BBX 10 16 0 0
BITMAP
1C00
3600
E700
0000
0000
1800
3000
7000
7000
6040
6080
6180
4300
4600
6C00
7800
ENDCHAR
STARTCHAR idieresis
ENCODING 239
SWIDTH 274 0
DWIDTH 8 0
BBX 9 15 1 0
BITMAP
EE00
CC00
0000
0000
3000
6000
E000
E000
C080
C100
C300
8600
8C00
D800
F000
ENDCHAR
STARTCHAR eth
ENCODING 240
SWIDTH 393 0
DWIDTH 11 0
BBX 14 20 0 -1
BITMAP
0200
0200
0300
0170
0FE0
1F80
1180
0180
1F80
3B80
6384
6198
F3B0
FBC0
DF80
C300
C600
CE00
7C00
1000
ENDCHAR
STARTCHAR ntilde
ENCODING 241
SWIDTH 461 0
DWIDTH 13 0
BBX 16 17 -1 -1
BITMAP
0010
1FF0
08E0
0000
0000
09C0
1BE0
1EE0
3CE0
38C1
30C3
30C2
71C4
618C
6198
61F0
80C0
ENDCHAR
STARTCHAR ograve
ENCODING 242
SWIDTH 393 0
DWIDTH 11 0
BBX 14 18 0 -1
BITMAP
1C00
1E00
0700
0100
0000
0000
1E00
3B00
6304
6118
F330
FBC0
DF80
C300
C600
CE00
7C00
1000
ENDCHAR
STARTCHAR oacute
ENCODING 243
SWIDTH 393 0
DWIDTH 11 0
BBX 14 18 0 -1
BITMAP
0180
0780
0E00
0800
0000
0000
1E00
3B00
6304
6118
F330
FBC0
DF80
C300
C600
CE00
7C00
1000
ENDCHAR
STARTCHAR ocircumflex
ENCODING 244
SWIDTH 393 0
DWIDTH 11 0
BBX 14 17 0 -1
BITMAP
0E00
1B00
7380
0000
0000
1E00
3B00
6304
6118
F330
FBC0
DF80
C300
C600
CE00
7C00
1000
ENDCHAR
STARTCHAR otilde
ENCODING 245
SWIDTH 393 0
DWIDTH 11 0
BBX 14 17 0 -1
BITMAP
0040
7FC0
2380
0000
0000
1E00
3B00
6304
6118
F330
FBC0
DF80
C300
C600
CE00
7C00
1000
ENDCHAR
STARTCHAR odieresis
ENCODING 246
SWIDTH 393 0
DWIDTH 11 0
BBX 14 16 0 -1
BITMAP
39C0
3980
0000
0000
1E00
3B00
6304
6118
F330
FBC0
DF80
C300
C600
CE00
7C00
1000
ENDCHAR
STARTCHAR divide
ENCODING 247
SWIDTH 350 0
DWIDTH 10 0
BBX 10 9 0 5
BITMAP
0E00
0400
0000
FFC0
FF80
0000
0800
1C00
1000
ENDCHAR
STARTCHAR oslash
ENCODING 248
SWIDTH 406 0
DWIDTH 11 0
BBX 15 14 -1 -2
BITMAP
0060
0FC0
1D80
3882
38C4
38D8
6CF0
6FC0
6180
6180
3300
7E00
E800
C000
ENDCHAR
STARTCHAR ugrave
ENCODING 249
SWIDTH 468 0
DWIDTH 13 0
BBX 15 16 0 0
BITMAP
0C00
0E00
0300
0100
0000
1040
30C0
71C0
61C0
6182
E382
C384
C30C
C318
E7B0
7DE0
ENDCHAR
STARTCHAR uacute
ENCODING 250
SWIDTH 468 0
DWIDTH 13 0
BBX 15 16 0 0
BITMAP
0180
0380
0F00
0400
0000
1040
30C0
71C0
61C0
6182
E382
C384
C30C
C318
E7B0
7DE0
ENDCHAR
STARTCHAR ucircumflex
ENCODING 251
SWIDTH 468 0
DWIDTH 13 0
BBX 15 16 0 0
BITMAP
0380
0F80
18E0
0000
0000
1040
30C0
71C0
61C0
6182
E382
C384
C30C
C318
E7B0
7DE0
ENDCHAR
STARTCHAR udieresis
ENCODING 252
SWIDTH 468 0
DWIDTH 13 0
BBX 15 15 0 0
BITMAP
1CE0
1CC0
0000
0000
1040
30C0
71C0
61C0
6182
E382
C384
C30C
C318
E7B0
7DE0
ENDCHAR
STARTCHAR yacute
ENCODING 253
SWIDTH 406 0
DWIDTH 11 0
BBX 10 28 0 -12
BITMAP
00C0
01C0
0700
0400
0000
20C0
71C0
61C0
61C0
E180
C180
C380
C700
C700
CF00
FB00
7600
0600
0600
0600
0E00
0C00
0C00
0C00
1C00
1C00
1800
0800
ENDCHAR
STARTCHAR thorn
ENCODING 254
SWIDTH 451 0
DWIDTH 13 0
BBX 18 31 -3 -12
BITMAP
01C000
018000
018000
038000
038000
030000
030000
070000
063000
06F800
079800
071800
0E1840
0C1880
0C3180
0C7300
1F6600
1FCC00
1FF800
1B0000
300000
300000
300000
300000
700000
600000
600000
600000
E00000
E00000
400000
ENDCHAR
STARTCHAR ydieresis
ENCODING 255
SWIDTH 406 0
DWIDTH 11 0
BBX 10 27 0 -12
BITMAP
1DC0
1980
0000
0000
20C0
71C0
61C0
61C0
E180
C180
C380
C700
C700
CF00
FB00
7600
0600
0600
0600
0E00
0C00
0C00
0C00
1C00
1C00
1800
0800
ENDCHAR
STARTCHAR dotlessi
ENCODING 305
SWIDTH 274 0
DWIDTH 8 0
BBX 9 11 1 0
BITMAP
3000
6000
E000
E000
C080
C100
C300
8600
8C00
D800
F000
ENDCHAR
STARTCHAR Lslash
ENCODING 321
SWIDTH 492 0
DWIDTH 14 0
BBX 18 27 -3 -6
BITMAP
000180
0007C0
000FC0
001CC0
001CC0
001980
003B80
003F00
003E00
087C00
0FF000
03F000
006000
006000
00FC00
07F800
07C000
08C000
01C000
018000
038000
3F0000
7F0000
CFC300
F9FF00
207E00
000800
ENDCHAR
STARTCHAR lslash
ENCODING 322
SWIDTH 218 0
DWIDTH 6 0
BBX 10 20 -2 -1
BITMAP
0700
0700
0700
0700
0600
0600
0E00
0FC0
3FC0
FE00
DC00
1C00
1800
1800
1800
3800
3000
3000
3000
2000
ENDCHAR
STARTCHAR OE
ENCODING 338
SWIDTH 918 0
DWIDTH 26 0
BBX 26 26 0 -5
BITMAP
00C00600
01F83F80
03DCF0C0
068DC0C0
0E0F80C0
1C0F80C0
1C0F81C0
180F0380
380F0700
300F0000
700F8000
700F8000
700DD000
600DF800
601F9000
E01E0000
E01C0000
E01C0000
E0380100
E0380100
E0780200
607C0600
60FC0C00
71DE1C00
338FF800
1F03E000
ENDCHAR
STARTCHAR oe
ENCODING 339
SWIDTH 583 0
DWIDTH 16 0
BBX 19 12 0 -1
BITMAP
1E3C00
3B6C00
63CC00
619C00
F3B820
FFF060
DFC0C0
C30180
C78300
CF8E00
7DF800
106000
ENDCHAR
STARTCHAR Scaron
ENCODING 352
SWIDTH 474 0
DWIDTH 13 0
BBX 17 30 -1 -5
BITMAP
007380
003600
001C00
000000
00F000
03FC00
070C00
0E0E00
0C0E00
1C0E00
1C0E00
1C1C00
1C1000
0E0000
0F0000
070000
038000
03C000
01C000
00E000
00E000
006000
006000
606000
E06000
E0C000
E0C000
E18000
7F8000
3E0000
ENDCHAR
STARTCHAR scaron
ENCODING 353
SWIDTH 351 0
DWIDTH 10 0
BBX 10 19 0 -1
BITMAP
39C0
0F00
0E00
0000
0000
0000
0E00
1C00
3800
1C00
2C00
6C00
4600
8600
0700
6300
6600
7C00
3800
ENDCHAR
STARTCHAR Ydieresis
ENCODING 376
SWIDTH 532 0
DWIDTH 15 0
BBX 16 29 0 -5
BITMAP
01CE
01CC
0000
0002
0E07
0E06
1C0E
1C0E
1C0E
380C
380C
381C
301C
3018
7038
7038
6078
6070
60F0
71B0
7F30
3C60
0060
0060
00C0
61C0
F780
FF00
7C00
ENDCHAR
STARTCHAR Zcaron
ENCODING 381
SWIDTH 455 0
DWIDTH 13 0
BBX 17 30 -2 -5
BITMAP
007380
003600
001C00
000000
000000
07FF00
0FFF00
0C0700
000700
000E00
000E00
001C00
003800
003800
007000
00E000
01C000
038000
030000
070000
0E0000
1C0000
180000
300000
700000
600000
E00000
FFF800
FFF000
E06000
ENDCHAR
STARTCHAR zcaron
ENCODING 382
SWIDTH 349 0
DWIDTH 10 0
BBX 16 29 -4 -12
BITMAP
018E
00F8
00E0
0000
0000
0000
07F0
0FF0
0C20
0060
00C0
00C0
0183
0306
07EC
0678
0470
01E0
0760
0CC0
18C0
31C0
6180
6380
6300
C700
E600
7C00
7800
ENDCHAR
STARTCHAR circumflex
ENCODING 710
SWIDTH 567 0
DWIDTH 16 0
BBX 8 3 6 16
BITMAP
1C
3C
C7
ENDCHAR
STARTCHAR caron
ENCODING 711
SWIDTH 567 0
DWIDTH 16 0
BBX 8 3 6 16
BITMAP
C7
7C
70
ENDCHAR
STARTCHAR breve
ENCODING 728
SWIDTH 567 0
DWIDTH 16 0
BBX 7 4 6 15
BITMAP
C2
C6
FC
78
ENDCHAR
STARTCHAR dotaccent
ENCODING 729
SWIDTH 567 0
DWIDTH 16 0
BBX 3 2 8 16
BITMAP
E0
C0
ENDCHAR
STARTCHAR ring
ENCODING 730
SWIDTH 567 0
DWIDTH 16 0
BBX 4 4 8 15
BITMAP
60
B0
A0
40
ENDCHAR
STARTCHAR ogonek
ENCODING 731
SWIDTH 567 0
DWIDTH 16 0
BBX 7 4 6 -3
BITMAP
60
C0
EE
78
ENDCHAR
STARTCHAR tilde
ENCODING 732
SWIDTH 567 0
DWIDTH 16 0
BBX 9 3 5 16
BITMAP
0080
FF80
4700
ENDCHAR
STARTCHAR hungarumlaut
ENCODING 733
SWIDTH 567 0
DWIDTH 16 0
BBX 9 4 5 15
BITMAP
1980
3B80
EF00
8400
ENDCHAR
STARTCHAR endash
ENCODING 8211
SWIDTH 353 0
DWIDTH 10 0
BBX 9 3 0 7
BITMAP
7F80
FF80
8000
ENDCHAR
STARTCHAR emdash
ENCODING 8212
SWIDTH 508 0
DWIDTH 14 0
BBX 14 3 0 7
BITMAP
FFF8
FFFC
8000
ENDCHAR
STARTCHAR quoteleft
ENCODING 8216
SWIDTH 155 0
DWIDTH 4 0
BBX 4 6 1 13
BITMAP
20
60
40
E0
F0
E0
ENDCHAR
STARTCHAR quoteright
ENCODING 8217
SWIDTH 154 0
DWIDTH 4 0
BBX 3 6 2 13
BITMAP
60
E0
E0
60
40
80
ENDCHAR
STARTCHAR quotesinglbase
ENCODING 8218
SWIDTH 188 0
DWIDTH 5 0
BBX 3 6 -1 -3
BITMAP
60
E0
E0
60
40
C0
ENDCHAR
STARTCHAR quotedblleft
ENCODING 8220
SWIDTH 289 0
DWIDTH 8 0
BBX 7 6 1 13
BITMAP
22
64
4C
EE
FE
EE
ENDCHAR
STARTCHAR quotedblright
ENCODING 8221
SWIDTH 288 0
DWIDTH 8 0
BBX 7 6 2 13
BITMAP
EE
FE
EE
64
4C
88
ENDCHAR
STARTCHAR quotedblbase
ENCODING 8222
SWIDTH 323 0
DWIDTH 9 0
BBX 7 6 -1 -3
BITMAP
66
EE
EE
66
44
C8
ENDCHAR
STARTCHAR bullet
ENCODING 8226
SWIDTH 180 0
DWIDTH 5 0
BBX 4 6 0 5
BITMAP
70
F0
F0
F0
F0
E0
ENDCHAR
STARTCHAR ellipsis
ENCODING 8230
SWIDTH 614 0
DWIDTH 17 0
BBX 15 3 -1 -1
BITMAP
73CE
F39E
4308
ENDCHAR
STARTCHAR perthousand
ENCODING 8240
SWIDTH 851 0
DWIDTH 24 0
BBX 23 21 0 0
BITMAP
000100
1E0700
3B0600
310C00
611800
631800
633000
636000
666000
3CC000
018000
018000
033C3C
066664
06C6C6
0CC6C6
18C686
38878C
308C8C
60DCD8
E0F8F8
ENDCHAR
STARTCHAR guilsinglleft
ENCODING 8249
SWIDTH 202 0
DWIDTH 6 0
BBX 6 11 -1 0
BITMAP
04
08
18
30
60
C0
C0
60
60
30
10
ENDCHAR
STARTCHAR guilsinglright
ENCODING 8250
SWIDTH 202 0
DWIDTH 6 0
BBX 7 11 -2 0
BITMAP
20
30
18
18
0C
0E
0C
18
30
60
C0
ENDCHAR
STARTCHAR fraction
ENCODING 8260
SWIDTH 600 0
DWIDTH 17 0
BBX 16 21 1 0
BITMAP
0001
0006
000E
000C
0018
0030
0030
0060
00C0
00C0
0180
0300
0300
0600
0C00
0C00
1800
3000
3000
6000
E000
ENDCHAR
STARTCHAR Euro
ENCODING 8364
SWIDTH 334 0
DWIDTH 9 0
BBX 12 16 -1 2
BITMAP
03E0
0730
0E20
0C00
1C00
1800
7F80
F180
3000
FF00
3000
2000
2000
3080
1100
0E00
ENDCHAR
STARTCHAR minus
ENCODING 8722
SWIDTH 353 0
DWIDTH 10 0
BBX 9 3 0 7
BITMAP
7F80
FF80
8000
ENDCHAR
STARTCHAR fi
ENCODING 64257
SWIDTH 549 0
DWIDTH 15 0
BBX 21 33 -3 -13
BITMAP
004000
01C000
01C180
01C380
01C300
018000
018000
038000
030000
030600
030600
060E00
067C00
078C08
1E0C10
1C1C30
1C1860
1E18C0
1F1B80
1B0F00
198000
318000
30C000
30C000
30C000
61C000
618000
618000
630000
E70000
FE0000
FC0000
780000
ENDCHAR
STARTCHAR fl
ENCODING 64258
SWIDTH 516 0
DWIDTH 14 0
BBX 18 33 -3 -13
BITMAP
004000
01C1C0
01C1C0
01C180
01C380
018380
018380
038300
030300
030700
030600
060600
067E00
078E00
1E0C00
1C0C00
1C0C00
1E1C00
1F1800
1B1800
198800
318000
30C000
30C000
30C000
61C000
618000
618000
630000
E70000
FE0000
FC0000
780000
ENDCHAR
STARTCHAR .notdef
ENCODING -1
SWIDTH 280 0
DWIDTH 8 0
BBX 1 1 0 0
BITMAP
00
ENDCHAR
ENDFONT
